<svg width="57" height="92" viewBox="0 0 57 92" fill="none" xmlns="http://www.w3.org/2000/svg">
<path d="M28.64 0.631996C37.088 0.631996 43.9147 3.02133 49.12 7.8C54.3253 12.5787 56.928 18.9787 56.928 27C56.928 35.96 54.1547 42.616 48.608 46.968C43.0613 51.2347 35.552 53.368 26.08 53.368L25.696 65.528H15.584L15.072 45.304H18.784C27.232 45.304 33.8453 44.024 38.624 41.464C43.4027 38.904 45.792 34.0827 45.792 27C45.792 21.88 44.256 17.8267 41.184 14.84C38.112 11.8533 33.9733 10.36 28.768 10.36C23.4773 10.36 19.296 11.8107 16.224 14.712C13.2373 17.528 11.744 21.4107 11.744 26.36H0.736C0.736 21.24 1.888 16.76 4.192 12.92C6.496 8.99466 9.73867 5.96533 13.92 3.83199C18.1867 1.69866 23.0933 0.631996 28.64 0.631996ZM20.576 91.768C18.3573 91.768 16.48 91 14.944 89.464C13.408 87.928 12.64 86.0507 12.64 83.832C12.64 81.6133 13.408 79.736 14.944 78.2C16.48 76.664 18.3573 75.896 20.576 75.896C22.7093 75.896 24.5013 76.664 25.952 78.2C27.488 79.736 28.256 81.6133 28.256 83.832C28.256 86.0507 27.488 87.928 25.952 89.464C24.5013 91 22.7093 91.768 20.576 91.768Z" fill="url(#paint0_linear_9_20)"/>
<defs>
<linearGradient id="paint0_linear_9_20" x1="30" y1="-50" x2="30" y2="142" gradientUnits="userSpaceOnUse">
<stop stop-color="#11266B"/>
<stop offset="1" stop-color="#00013F"/>
</linearGradient>
</defs>
</svg>
